<svg width="60" height="60" viewBox="0 0 60 60" fill="none" xmlns="http://www.w3.org/2000/svg">
<path d="M46.043 59.9995H13.957C12.8965 59.9983 11.8798 59.5765 11.1299 58.8266C10.38 58.0767 9.9582 57.06 9.95698 55.9995V29.1021C9.95698 28.8368 10.0623 28.5825 10.2499 28.3949C10.4374 28.2074 10.6918 28.1021 10.957 28.1021C11.2222 28.1021 11.4766 28.2074 11.6641 28.3949C11.8516 28.5825 11.957 28.8368 11.957 29.1021V55.9995C11.9575 56.5298 12.1684 57.0382 12.5434 57.4131C12.9183 57.7881 13.4267 57.999 13.957 57.9995H46.043C46.5733 57.999 47.0817 57.7881 47.4566 57.4131C47.8316 57.0382 48.0425 56.5298 48.043 55.9995V29.1021C48.043 28.8368 48.1483 28.5825 48.3359 28.3949C48.5234 28.2074 48.7778 28.1021 49.043 28.1021C49.3082 28.1021 49.5626 28.2074 49.7501 28.3949C49.9376 28.5825 50.043 28.8368 50.043 29.1021V55.9995C50.0418 57.06 49.62 58.0767 48.8701 58.8266C48.1202 59.5765 47.1035 59.9983 46.043 59.9995V59.9995ZM58.1963 29.8169C58.2902 29.7251 58.3651 29.6157 58.4167 29.4949C58.4683 29.3742 58.4956 29.2444 58.4971 29.1131C58.4985 28.9818 58.4741 28.8515 58.4251 28.7296C58.3762 28.6077 58.3037 28.4967 58.2119 28.4028L32.8594 2.4917C32.4868 2.11097 32.042 1.80848 31.551 1.60196C31.06 1.39544 30.5327 1.28906 30 1.28906C29.4673 1.28906 28.94 1.39544 28.449 1.60196C27.958 1.80848 27.5132 2.11097 27.1406 2.4917L1.78808 28.4028C1.69476 28.4964 1.62091 28.6075 1.57079 28.7298C1.52068 28.8521 1.4953 28.9831 1.49611 29.1152C1.49693 29.2473 1.52392 29.378 1.57554 29.4996C1.62716 29.6213 1.70238 29.7315 1.79684 29.8239C1.89131 29.9163 2.00315 29.9891 2.1259 30.038C2.24866 30.0869 2.37989 30.111 2.51202 30.1089C2.64414 30.1068 2.77454 30.0785 2.89568 30.0257C3.01681 29.9729 3.12628 29.8966 3.21776 29.8013L28.5703 3.89014C28.9528 3.51728 29.4658 3.30859 30 3.30859C30.5341 3.30859 31.0472 3.51728 31.4297 3.89014L56.7822 29.8013C56.874 29.8952 56.9834 29.97 57.1042 30.0216C57.225 30.0732 57.3547 30.1005 57.486 30.102C57.6173 30.1034 57.7476 30.079 57.8695 30.0301C57.9914 29.9812 58.1024 29.9087 58.1963 29.8169V29.8169Z" fill="url(#paint0_linear)" id="id_101"></path>
<defs>
<linearGradient id="paint0_linear" x1="1.50286" y1="30.6443" x2="58.4971" y2="30.6443" gradientUnits="userSpaceOnUse">
<stop stop-color="#fb7185" id="id_102"></stop>
<stop offset="1" stop-color="#f43f5e" id="id_103"></stop>
</linearGradient>
</defs>
</svg>