<svg width="60" height="60" viewBox="0 0 60 60" fill="none" xmlns="http://www.w3.org/2000/svg">
<g clip-path="url(#clip0)">
<path d="M59 59.9991C58.8687 59.9992 58.7386 59.9734 58.6173 59.9231C58.4959 59.8728 58.3857 59.7991 58.293 59.7061L39.5674 40.9805C39.4745 40.8877 39.4008 40.7775 39.3506 40.6561C39.3003 40.5348 39.2744 40.4048 39.2744 40.2735C39.2744 40.1422 39.3003 40.0121 39.3506 39.8908C39.4008 39.7695 39.4745 39.6593 39.5674 39.5664C43.5691 35.5596 45.8693 30.1625 45.9882 24.5008C46.1071 18.8392 44.0354 13.3502 40.2054 9.17898C36.3753 5.00774 31.0827 2.47633 25.4314 2.11279C19.7802 1.74924 14.2068 3.58165 9.87391 7.22776C5.54098 10.8739 2.7831 16.0521 2.17556 21.6824C1.56802 27.3126 3.15774 32.96 6.61311 37.4465C10.0685 41.933 15.1227 44.9122 20.7213 45.7626C26.32 46.613 32.0309 45.2689 36.6626 42.0108C36.8794 41.8581 37.1479 41.7978 37.4092 41.8431C37.6704 41.8884 37.903 42.0357 38.0557 42.2525C38.2084 42.4692 38.2687 42.7378 38.2234 42.9991C38.178 43.2603 38.0308 43.4929 37.814 43.6455C32.7869 47.1811 26.5955 48.6544 20.5147 47.7622C14.434 46.8701 8.92675 43.6802 5.12715 38.8496C1.32754 34.019 -0.475196 27.9154 0.0901468 21.7956C0.65549 15.6758 3.54587 10.0057 8.16612 5.9529C12.7864 1.90011 18.7847 -0.226832 24.926 0.0100461C31.0673 0.246924 36.884 2.82959 41.1784 7.22622C45.4727 11.6229 47.9178 17.4987 48.01 23.6439C48.1023 29.7891 45.8348 35.7357 41.6744 40.2593L59.707 58.2921C59.8468 58.4319 59.942 58.6101 59.9806 58.804C60.0192 58.998 59.9993 59.199 59.9237 59.3817C59.848 59.5644 59.7199 59.7206 59.5555 59.8305C59.391 59.9403 59.1978 59.999 59 59.9991Z" fill="url(#paint0_linear)" id="id_101"></path>
</g>
<defs>
<linearGradient id="paint0_linear" x1="-1.5541e-06" y1="29.9991" x2="60" y2="29.9991" gradientUnits="userSpaceOnUse">
<stop stop-color="#fb7185" id="id_103"></stop>
<stop offset="1" stop-color="#f43f5e" id="id_104"></stop>
</linearGradient>
<clipPath id="clip0">
<rect width="60" height="60" fill="white" id="id_102"></rect>
</clipPath>
</defs>
</svg>